<?xml version="1.0" standalone="no"?>
<!DOCTYPE svg PUBLIC "-//W3C//DTD SVG 20010904//EN"
 "http://www.w3.org/TR/2001/REC-SVG-20010904/DTD/svg10.dtd">
<svg version="1.0" xmlns="http://www.w3.org/2000/svg"
 width="210.000000pt" height="241.000000pt" viewBox="0 0 210.000000 241.000000"
 preserveAspectRatio="xMidYMid meet">
<metadata>
Created by potrace 1.16, written by Peter Selinger 2001-2019
</metadata>
<g transform="translate(0.000000,241.000000) scale(0.100000,-0.100000)"
fill="#000000" stroke="none">
<path d="M112 2280 c183 -223 684 -839 696 -858 14 -21 13 -25 -8 -47 -13 -14
-38 -28 -57 -31 -65 -12 -84 6 -202 185 -60 92 -123 191 -141 219 -17 29 -34
52 -37 52 -2 0 4 -15 15 -32 46 -76 206 -366 218 -394 13 -30 11 -34 -16 -69
-34 -43 -45 -75 -60 -170 -15 -95 -43 -151 -134 -272 -93 -124 -106 -153 -106
-241 0 -82 14 -125 67 -212 22 -36 42 -73 46 -82 9 -24 32 -23 116 6 88 30
167 80 192 120 23 38 24 99 3 135 -9 15 -43 46 -75 70 -120 88 -132 137 -69
285 28 64 46 125 52 175 16 116 23 126 114 146 94 21 151 66 161 127 5 36 2
42 -73 125 -607 672 -802 883 -702 763z"/>
<path d="M867 1855 c120 -33 191 -91 328 -265 165 -209 222 -240 474 -260 167
-14 206 -25 254 -73 40 -40 40 -40 33 -11 -12 48 -61 147 -91 182 l-28 34 -18
-47 c-30 -79 -69 -106 -100 -69 -10 13 -10 22 1 52 8 20 13 64 12 97 -1 68 -4
71 -97 116 -95 46 -190 62 -321 57 l-112 -5 -54 54 c-91 92 -171 135 -278 147
l-55 6 52 -15z"/>
<path d="M802 1738 c7 -96 39 -175 95 -238 52 -58 89 -80 133 -80 l31 0 -29
53 c-17 28 -40 89 -51 134 -24 100 -42 135 -78 161 -24 16 -85 42 -101 42 -2
0 -2 -33 0 -72z"/>
<path d="M1360 1299 c0 -142 96 -229 375 -339 186 -74 286 -149 301 -226 9
-50 20 -50 38 3 37 109 13 264 -55 346 -72 88 -162 127 -368 163 -172 29 -204
38 -253 70 l-38 24 0 -41z"/>
<path d="M903 1225 c-48 -34 -50 -125 -3 -140 33 -11 106 4 134 26 79 62 -48
172 -131 114z"/>
<path d="M1514 940 c7 -37 7 -63 -3 -98 -27 -104 -95 -147 -286 -185 -102 -21
-232 -63 -223 -73 2 -1 30 4 63 11 33 7 103 16 155 20 132 9 201 29 254 76 24
21 51 54 60 73 23 48 21 137 -4 186 -11 22 -22 40 -23 40 -2 0 1 -23 7 -50z"/>
<path d="M1606 935 c-11 -30 -6 -114 10 -162 9 -26 50 -100 92 -163 132 -202
156 -280 117 -389 l-14 -41 30 15 c51 27 110 94 142 163 28 60 32 77 32 157 0
168 -59 243 -290 370 -38 21 -80 44 -91 52 -19 12 -22 12 -28 -2z"/>
<path d="M962 490 c-80 -21 -160 -61 -237 -117 l-50 -37 71 -16 c80 -19 123
-42 174 -96 19 -20 53 -49 74 -65 104 -77 238 5 192 116 -15 34 -46 50 -90 47
-24 -1 -56 -31 -56 -51 0 -10 5 -7 13 9 16 32 70 40 98 14 27 -24 25 -75 -4
-102 -27 -26 -66 -28 -107 -7 -80 41 -61 149 30 176 33 10 47 9 83 -5 65 -25
104 -70 158 -182 53 -110 85 -146 150 -166 45 -13 113 -1 153 28 21 16 21 16
-4 7 -14 -4 -50 -8 -81 -8 -91 0 -117 34 -148 193 -11 55 -29 118 -40 140 -58
114 -219 166 -379 122z"/>
</g>
</svg>
